<?xml version="1.0" encoding="utf-8"?>

<!DOCTYPE svg PUBLIC "-//W3C//DTD SVG 1.1//EN" "http://www.w3.org/Graphics/SVG/1.1/DTD/svg11.dtd">
<svg version="1.1" id="Layer_1" xmlns="http://www.w3.org/2000/svg" xmlns:xlink="http://www.w3.org/1999/xlink" x="0px" y="0px"
	 viewBox="0 0 2306 1715.3236" enable-background="new 0 0 2306 1715.3236" xml:space="preserve">
<g>
	<path fill="#662D91" d="M1695.1492,590.9952c-5.903,0-11.7744,0.1307-17.6313,0.3212v-0.3212
		c0-294.5518-238.7813-533.3334-533.3331-533.3334S610.8516,296.4434,610.8516,590.9952
		c-294.5522,0-533.3339,238.7816-533.3339,533.3331c0,294.5521,238.7816,533.3334,533.3339,533.3334h1066.6663v-0.3208
		c5.8569,0.1901,11.7284,0.3208,17.6313,0.3208c294.5514,0,533.333-238.7813,533.333-533.3334
		C2228.4822,829.7769,1989.7006,590.9952,1695.1492,590.9952z"/>
	<path fill="#00FFFF" d="M1613.3754,751.8835c-5.0126,0-9.9985,0.111-14.972,0.2728v-0.2728
		c0-250.1238-202.7653-452.8894-452.889-452.8894S692.6254,501.7597,692.6254,751.8835
		c-250.1241,0-452.8897,202.7655-452.8897,452.889c0,250.1241,202.7655,452.8893,452.8897,452.8893h905.778v-0.2723
		c4.9735,0.1614,9.9595,0.2723,14.972,0.2723c250.1234,0,452.889-202.7651,452.889-452.8893
		C2066.2644,954.649,1863.4988,751.8835,1613.3754,751.8835z"/>
	<path fill="#FFFFFF" d="M1498.2815,978.3281c-3.7594,0-7.4989,0.0833-11.229,0.2045v-0.2045
		c0-187.5928-152.0739-339.6671-339.6667-339.6671S807.719,790.7352,807.719,978.3281
		c-187.5931,0-339.6672,152.0742-339.6672,339.6667c0,187.5931,152.0742,339.667,339.6672,339.667h679.3335v-0.2042
		c3.7301,0.121,7.4696,0.2042,11.229,0.2042c187.5925,0,339.6667-152.0739,339.6667-339.667
		C1837.9482,1130.4022,1685.874,978.3281,1498.2815,978.3281z"/>
</g>
</svg>
